<mxfile host="app.diagrams.net" modified="2023-12-22T19:52:29.447Z" agent="Mozilla/5.0 (X11; Linux x86_64; rv:109.0) Gecko/20100101 Firefox/115.0" etag="xWfnJuSPqLuivyPr4I63" version="22.1.11" type="device">
  <diagram name="Page-1" id="I-MKUHdE0aTOCIu3sr_L">
    <mxGraphModel dx="876" dy="417" grid="1" gridSize="10" guides="1" tooltips="1" connect="1" arrows="1" fold="1" page="1" pageScale="1" pageWidth="850" pageHeight="1100" math="0" shadow="0">
      <root>
        <mxCell id="0" />
        <mxCell id="1" parent="0" />
        <mxCell id="yXWEM5b1JNCzVUtDOmzB-3" value="" style="endArrow=classic;startArrow=classic;html=1;rounded=0;exitX=1;exitY=0.5;exitDx=0;exitDy=0;entryX=0;entryY=0.5;entryDx=0;entryDy=0;startFill=1;" parent="1" source="yXWEM5b1JNCzVUtDOmzB-28" target="yXWEM5b1JNCzVUtDOmzB-4" edge="1">
          <mxGeometry width="50" height="50" relative="1" as="geometry">
            <mxPoint x="140" y="225" as="sourcePoint" />
            <mxPoint x="200" y="225" as="targetPoint" />
          </mxGeometry>
        </mxCell>
        <mxCell id="yXWEM5b1JNCzVUtDOmzB-10" value="HTTP API" style="edgeStyle=orthogonalEdgeStyle;rounded=0;orthogonalLoop=1;jettySize=auto;html=1;exitX=1;exitY=0.5;exitDx=0;exitDy=0;entryX=0;entryY=0.5;entryDx=0;entryDy=0;" parent="1" source="yXWEM5b1JNCzVUtDOmzB-4" target="yXWEM5b1JNCzVUtDOmzB-7" edge="1">
          <mxGeometry x="0.0105" relative="1" as="geometry">
            <mxPoint as="offset" />
          </mxGeometry>
        </mxCell>
        <mxCell id="yXWEM5b1JNCzVUtDOmzB-4" value="API Gateway" style="rounded=0;whiteSpace=wrap;html=1;" parent="1" vertex="1">
          <mxGeometry x="210" y="195" width="120" height="60" as="geometry" />
        </mxCell>
        <mxCell id="yXWEM5b1JNCzVUtDOmzB-17" style="edgeStyle=orthogonalEdgeStyle;rounded=0;orthogonalLoop=1;jettySize=auto;html=1;entryX=0;entryY=0.5;entryDx=0;entryDy=0;" parent="1" source="yXWEM5b1JNCzVUtDOmzB-7" target="yXWEM5b1JNCzVUtDOmzB-14" edge="1">
          <mxGeometry relative="1" as="geometry" />
        </mxCell>
        <mxCell id="yXWEM5b1JNCzVUtDOmzB-44" style="edgeStyle=orthogonalEdgeStyle;rounded=0;orthogonalLoop=1;jettySize=auto;html=1;exitX=0.5;exitY=1;exitDx=0;exitDy=0;entryX=0.5;entryY=0;entryDx=0;entryDy=0;" parent="1" source="yXWEM5b1JNCzVUtDOmzB-7" target="yXWEM5b1JNCzVUtDOmzB-35" edge="1">
          <mxGeometry relative="1" as="geometry" />
        </mxCell>
        <mxCell id="yXWEM5b1JNCzVUtDOmzB-7" value="&lt;div&gt;AWS Lambda&lt;/div&gt;&lt;font style=&quot;font-size: 11px;&quot;&gt;(CUD)&lt;/font&gt;" style="rounded=0;whiteSpace=wrap;html=1;" parent="1" vertex="1">
          <mxGeometry x="450" y="195" width="120" height="60" as="geometry" />
        </mxCell>
        <mxCell id="yXWEM5b1JNCzVUtDOmzB-14" value="RDS" style="rounded=0;whiteSpace=wrap;html=1;" parent="1" vertex="1">
          <mxGeometry x="640" y="195" width="120" height="60" as="geometry" />
        </mxCell>
        <mxCell id="yXWEM5b1JNCzVUtDOmzB-28" value="Client" style="ellipse;whiteSpace=wrap;html=1;" parent="1" vertex="1">
          <mxGeometry x="70" y="192.5" width="90" height="65" as="geometry" />
        </mxCell>
        <mxCell id="yXWEM5b1JNCzVUtDOmzB-37" value="SQS Trigger" style="edgeStyle=orthogonalEdgeStyle;rounded=0;orthogonalLoop=1;jettySize=auto;html=1;entryX=0;entryY=0.5;entryDx=0;entryDy=0;" parent="1" source="yXWEM5b1JNCzVUtDOmzB-35" target="yXWEM5b1JNCzVUtDOmzB-38" edge="1">
          <mxGeometry x="0.0909" relative="1" as="geometry">
            <mxPoint x="510" y="440" as="targetPoint" />
            <Array as="points">
              <mxPoint x="510" y="410" />
            </Array>
            <mxPoint as="offset" />
          </mxGeometry>
        </mxCell>
        <mxCell id="yXWEM5b1JNCzVUtDOmzB-35" value="SQS" style="rhombus;whiteSpace=wrap;html=1;" parent="1" vertex="1">
          <mxGeometry x="470" y="290" width="80" height="80" as="geometry" />
        </mxCell>
        <mxCell id="yXWEM5b1JNCzVUtDOmzB-41" style="edgeStyle=orthogonalEdgeStyle;rounded=0;orthogonalLoop=1;jettySize=auto;html=1;exitX=0.5;exitY=0;exitDx=0;exitDy=0;entryX=0.5;entryY=1;entryDx=0;entryDy=0;" parent="1" source="yXWEM5b1JNCzVUtDOmzB-38" target="yXWEM5b1JNCzVUtDOmzB-14" edge="1">
          <mxGeometry relative="1" as="geometry" />
        </mxCell>
        <mxCell id="yXWEM5b1JNCzVUtDOmzB-45" style="edgeStyle=orthogonalEdgeStyle;rounded=0;orthogonalLoop=1;jettySize=auto;html=1;exitX=0.5;exitY=1;exitDx=0;exitDy=0;entryX=0.5;entryY=1;entryDx=0;entryDy=0;" parent="1" source="yXWEM5b1JNCzVUtDOmzB-38" target="yXWEM5b1JNCzVUtDOmzB-4" edge="1">
          <mxGeometry relative="1" as="geometry" />
        </mxCell>
        <mxCell id="yXWEM5b1JNCzVUtDOmzB-46" value="WebSocket API" style="edgeLabel;html=1;align=center;verticalAlign=middle;resizable=0;points=[];" parent="yXWEM5b1JNCzVUtDOmzB-45" vertex="1" connectable="0">
          <mxGeometry x="0.0107" relative="1" as="geometry">
            <mxPoint x="3" as="offset" />
          </mxGeometry>
        </mxCell>
        <mxCell id="yXWEM5b1JNCzVUtDOmzB-38" value="AWS Lambda&lt;br&gt;&lt;div&gt;&lt;font style=&quot;font-size: 11px;&quot;&gt;(Retrieve data and/or cache update)&lt;/font&gt;&lt;/div&gt;" style="rounded=0;whiteSpace=wrap;html=1;" parent="1" vertex="1">
          <mxGeometry x="640" y="380" width="120" height="60" as="geometry" />
        </mxCell>
        <mxCell id="yXWEM5b1JNCzVUtDOmzB-55" style="edgeStyle=orthogonalEdgeStyle;rounded=0;orthogonalLoop=1;jettySize=auto;html=1;entryX=0.5;entryY=0;entryDx=0;entryDy=0;" parent="1" source="yXWEM5b1JNCzVUtDOmzB-49" target="yXWEM5b1JNCzVUtDOmzB-7" edge="1">
          <mxGeometry relative="1" as="geometry" />
        </mxCell>
        <mxCell id="yXWEM5b1JNCzVUtDOmzB-56" style="edgeStyle=orthogonalEdgeStyle;rounded=0;orthogonalLoop=1;jettySize=auto;html=1;entryX=1;entryY=0.5;entryDx=0;entryDy=0;" parent="1" source="yXWEM5b1JNCzVUtDOmzB-49" target="yXWEM5b1JNCzVUtDOmzB-38" edge="1">
          <mxGeometry relative="1" as="geometry">
            <Array as="points">
              <mxPoint x="800" y="130" />
              <mxPoint x="800" y="410" />
            </Array>
          </mxGeometry>
        </mxCell>
        <mxCell id="yXWEM5b1JNCzVUtDOmzB-49" value="S3&lt;br&gt;(Lambda code)" style="rounded=0;whiteSpace=wrap;html=1;" parent="1" vertex="1">
          <mxGeometry x="640" y="100" width="120" height="60" as="geometry" />
        </mxCell>
        <mxCell id="yXWEM5b1JNCzVUtDOmzB-54" style="edgeStyle=orthogonalEdgeStyle;rounded=0;orthogonalLoop=1;jettySize=auto;html=1;" parent="1" source="yXWEM5b1JNCzVUtDOmzB-52" edge="1">
          <mxGeometry relative="1" as="geometry">
            <mxPoint x="700" y="440" as="targetPoint" />
          </mxGeometry>
        </mxCell>
        <mxCell id="yXWEM5b1JNCzVUtDOmzB-52" value="Redis" style="rounded=0;whiteSpace=wrap;html=1;" parent="1" vertex="1">
          <mxGeometry x="640" y="480" width="120" height="60" as="geometry" />
        </mxCell>
      </root>
    </mxGraphModel>
  </diagram>
</mxfile>
